<svg width="156" height="156" viewBox="0 0 156 156" fill="none" xmlns="http://www.w3.org/2000/svg">
<path d="M151.902 79.6236L153.676 79.3552L153.352 77.5903L149.699 57.6741L149.388 55.9814L147.693 56.2741L89.9673 66.2371L99.9604 8.56284L100.257 6.84922L98.5437 6.5523L78.3446 3.05248L76.631 2.75556L76.3341 4.46918L66.341 62.1434L15.3327 33.3405L13.7987 32.4743L12.9523 34.0193L3.30399 51.6307L2.46839 53.156L3.99365 53.9916L54.7399 81.7927L12.7128 121.793L11.4407 123.004L12.6638 124.264L26.8728 138.905L28.0819 140.151L29.3299 138.944L72.1207 97.5627L98.8987 151.508L99.6927 153.108L101.271 152.272L118.592 143.094L120.09 142.3L119.334 140.782L93.2929 88.4927L151.902 79.6236Z" stroke="black" stroke-width="3.47831"/>
</svg>
