<svg width="18" height="17" viewBox="0 0 18 17" fill="none" xmlns="http://www.w3.org/2000/svg">
<path d="M17.5775 2.1586C17.0888 1.63518 16.4976 1.21784 15.8409 0.932494C15.1841 0.647153 14.4756 0.499908 13.7595 0.499908C13.0434 0.499908 12.3349 0.647153 11.6781 0.932494C11.0213 1.21784 10.4302 1.63518 9.94153 2.1586C9.56516 2.55347 9.24806 3.00083 9.00012 3.48673C8.75338 3.00108 8.4376 2.55372 8.06262 2.1586C7.57392 1.63518 6.9828 1.21784 6.32601 0.932494C5.66921 0.647153 4.96075 0.499908 4.24465 0.499908C3.52855 0.499908 2.8201 0.647153 2.1633 0.932494C1.5065 1.21784 0.915389 1.63518 0.426684 2.1586C0.35738 2.23141 0.306661 2.31986 0.278829 2.41646C0.250997 2.51305 0.246873 2.61493 0.266808 2.71345C0.286743 2.81198 0.330148 2.90424 0.393341 2.98241C0.456534 3.06059 0.537651 3.12236 0.629809 3.16251L5.01575 5.07423C3.58743 5.45611 2.36907 6.38927 1.62825 7.66876C1.25657 8.303 1.01535 9.00511 0.918754 9.73387C0.822159 10.4626 0.872134 11.2033 1.06575 11.9125C1.09251 12.0113 1.14313 12.1021 1.21317 12.1767C1.28321 12.2514 1.37052 12.3077 1.46742 12.3407C1.56432 12.3737 1.66786 12.3825 1.76891 12.3661C1.86997 12.3497 1.96546 12.3088 2.047 12.2469L8.37512 7.42813V15.5C8.37512 15.6658 8.44097 15.8247 8.55818 15.9419C8.67539 16.0592 8.83436 16.125 9.00012 16.125C9.16588 16.125 9.32485 16.0592 9.44206 15.9419C9.55927 15.8247 9.62512 15.6658 9.62512 15.5V7.42813L15.9532 12.2469C16.0348 12.309 16.1303 12.3501 16.2315 12.3665C16.3327 12.383 16.4363 12.3743 16.5333 12.3413C16.6303 12.3082 16.7177 12.2518 16.7878 12.1771C16.8579 12.1023 16.9086 12.0115 16.9353 11.9125C17.1289 11.2033 17.1789 10.4626 17.0823 9.73387C16.9857 9.00511 16.7445 8.303 16.3728 7.66876C15.6318 6.3891 14.4131 5.45592 12.9845 5.07423L17.3767 3.16251C17.4688 3.12236 17.55 3.06059 17.6132 2.98241C17.6763 2.90424 17.7197 2.81198 17.7397 2.71345C17.7596 2.61493 17.7555 2.51305 17.7277 2.41646C17.6998 2.31986 17.6491 2.23141 17.5798 2.1586H17.5775ZM4.24075 1.75001C4.78729 1.75123 5.32777 1.86461 5.82874 2.08311C6.32971 2.30161 6.78051 2.62059 7.15325 3.02032C7.71018 3.60642 8.09554 4.33417 8.26731 5.12423L2.047 2.41641C2.69616 1.98201 3.45965 1.75008 4.24075 1.75001ZM2.12512 10.6172C2.09528 9.80402 2.29771 8.99917 2.70872 8.29688C2.99601 7.80107 3.37865 7.36706 3.83455 7.0199C4.29046 6.67274 4.8106 6.41931 5.36497 6.27423C5.7378 6.17476 6.12206 6.12459 6.50793 6.12501C6.93756 6.12497 7.36483 6.18841 7.7759 6.31329L2.12512 10.6172ZM15.2892 8.29688C15.701 8.99893 15.9043 9.80379 15.8751 10.6172L10.2267 6.31251C11.1711 6.02732 12.1841 6.06794 13.1027 6.42784C14.0212 6.78774 14.7922 7.44601 15.2915 8.29688H15.2892ZM9.73293 5.12423C9.90471 4.33417 10.2901 3.60642 10.847 3.02032C11.2197 2.62059 11.6705 2.30161 12.1715 2.08311C12.6725 1.86461 13.213 1.75123 13.7595 1.75001C14.5406 1.75008 15.3041 1.98201 15.9532 2.41641L9.73293 5.12423Z" fill="white"/>
</svg>
