<svg width="24" height="20" viewBox="0 0 24 20" fill="none" xmlns="http://www.w3.org/2000/svg">
<path d="M16.9716 0.0566406C14.974 0.0566406 13.2011 0.845135 12 2.20039C10.7988 0.845135 9.02597 0.0566406 7.02838 0.0566406C5.28854 0.0587457 3.62057 0.750826 2.39032 1.98108C1.16007 3.21133 0.467986 4.8793 0.465881 6.61914C0.465881 13.812 10.9868 19.5592 11.4342 19.8008C11.6081 19.8945 11.8025 19.9435 12 19.9435C12.1975 19.9435 12.3919 19.8945 12.5657 19.8008C13.0132 19.5592 23.5341 13.812 23.5341 6.61914C23.532 4.8793 22.8399 3.21133 21.6096 1.98108C20.3794 0.750826 18.7114 0.0587457 16.9716 0.0566406ZM16.4257 14.2118C15.0409 15.3869 13.5605 16.4445 12 17.3737C10.4394 16.4445 8.95908 15.3869 7.57426 14.2118C5.41957 12.3633 2.85225 9.54442 2.85225 6.61914C2.85225 5.51156 3.29223 4.44934 4.07541 3.66617C4.85858 2.88299 5.9208 2.443 7.02838 2.443C8.79827 2.443 10.2798 3.37766 10.8953 4.88306C10.9849 5.10251 11.1378 5.29031 11.3345 5.42251C11.5313 5.5547 11.7629 5.6253 12 5.6253C12.237 5.6253 12.4687 5.5547 12.6654 5.42251C12.8622 5.29031 13.0151 5.10251 13.1047 4.88306C13.7201 3.37766 15.2017 2.443 16.9716 2.443C18.0791 2.443 19.1414 2.88299 19.9245 3.66617C20.7077 4.44934 21.1477 5.51156 21.1477 6.61914C21.1477 9.54442 18.5804 12.3633 16.4257 14.2118Z" fill="white"/>
</svg>
