<svg width="250" height="50" viewBox="0 0 275 79" fill="none" xmlns="http://www.w3.org/2000/svg">
<path d="M25.4254 9.16016C22.7193 20.2065 18.3514 24.7639 0.5625 27.1561V38.9956H22.3471C23.2943 46.8096 16.9009 56.7548 0.5625 53.2029V68.831C18.5585 71.1989 31.3451 62.2009 32.0554 38.9956H47.2099V27.1561H27.5565C36.1698 21.3915 37.5277 17.1319 38.6855 9.16016H25.4254Z" fill="white" stroke="white" stroke-width="0.473578"/>
<path d="M69.7815 27.156V14.6251H76.4944V22.6807C76.4944 23.4479 76.3026 24.279 75.919 25.1741C75.5354 26.0691 74.9814 26.7511 74.2568 27.2199L75.3436 28.4347C75.8551 28.0937 76.3879 27.7953 76.942 27.5396C77.5387 27.2839 78.2633 27.156 79.1157 27.156H89.4729V32.91H76.4944V46.3359C76.4944 48.6801 76.9207 50.385 77.7731 51.4506C78.6682 52.4735 79.9042 52.985 81.4812 52.985C82.8025 52.985 84.2303 52.6014 85.7647 51.8342C87.3417 51.067 88.7057 50.0867 89.8564 48.8932L92.3498 54.2636C90.645 55.7554 88.7696 56.9062 86.7237 57.716C84.7205 58.4832 82.6533 58.8668 80.5222 58.8668C77.2403 58.8668 74.6191 57.9504 72.6585 56.1177C70.7405 54.2423 69.7815 51.3653 69.7815 47.4867V32.91H62.9406V27.156H69.7815ZM94.6799 27.156H101.393V32.1428H102.927C103.439 30.5231 104.355 29.2445 105.676 28.3068C107.04 27.3265 108.575 26.8363 110.28 26.8363C111.729 26.8363 113.135 27.1773 114.499 27.8593L112.581 34.828C110.834 33.8903 109.193 33.4214 107.658 33.4214C106.678 33.4214 105.826 33.6132 105.101 33.9968C104.376 34.3804 103.758 34.8493 103.247 35.4034C102.735 35.9148 102.331 36.4902 102.032 37.1296C101.734 37.7689 101.521 38.3443 101.393 38.8558V58.0996H94.6799V27.156ZM115.19 49.3408C115.19 47.849 115.446 46.5277 115.958 45.3769C116.512 44.1835 117.279 43.1819 118.259 42.3721C119.24 41.5196 120.412 40.8803 121.776 40.4541C123.139 40.0279 124.631 39.8148 126.251 39.8148C128.382 39.8148 130.087 40.1984 131.365 40.9655C132.687 41.6901 133.838 42.8409 134.818 44.4179L135.777 44.354V40.8377C135.777 39.0902 135.564 37.6623 135.138 36.5542C134.754 35.446 134.2 34.5936 133.475 33.9968C132.793 33.4001 131.962 32.9952 130.982 32.7821C130.002 32.569 128.936 32.4625 127.785 32.4625C126.592 32.4625 125.569 32.6116 124.716 32.91C123.864 33.2083 123.139 33.5919 122.543 34.0608C121.989 34.487 121.541 34.9345 121.2 35.4034C120.859 35.8296 120.625 36.2132 120.497 36.5542L115.382 32.6543C115.851 31.6313 116.533 30.7363 117.428 29.9691C118.323 29.1592 119.346 28.4986 120.497 27.9871C121.648 27.4331 122.884 27.0281 124.205 26.7724C125.569 26.5167 126.933 26.3888 128.297 26.3888C132.644 26.3888 136.097 27.5609 138.654 29.9051C141.211 32.2067 142.49 35.5312 142.49 39.8787V58.0996H136.288V53.8161L134.882 53.6882C134.711 54.3276 134.392 54.9669 133.923 55.6062C133.454 56.2029 132.836 56.757 132.069 57.2685C131.302 57.7373 130.385 58.1209 129.32 58.4193C128.297 58.7176 127.125 58.8668 125.803 58.8668C124.312 58.8668 122.905 58.6537 121.584 58.2275C120.305 57.8013 119.176 57.1832 118.195 56.3734C117.258 55.521 116.512 54.5194 115.958 53.3686C115.446 52.1751 115.19 50.8326 115.19 49.3408ZM121.839 49.3408C121.839 50.5768 122.308 51.5784 123.246 52.3456C124.226 53.0702 125.612 53.4325 127.402 53.4325C128.254 53.4325 129.107 53.3259 129.959 53.1128C130.854 52.8997 131.685 52.6227 132.452 52.2817C133.22 51.8981 133.901 51.4506 134.498 50.9391C135.095 50.4276 135.542 49.8949 135.841 49.3408C135.542 48.7441 135.095 48.2113 134.498 47.7425C133.901 47.231 133.22 46.8048 132.452 46.4638C131.685 46.0802 130.854 45.7818 129.959 45.5687C129.107 45.3556 128.254 45.2491 127.402 45.2491C125.612 45.2491 124.226 45.6327 123.246 46.3999C122.308 47.1244 121.839 48.1047 121.839 49.3408ZM142.931 27.156H150.22L155.782 42.3081C156.549 44.3966 157.082 46.2933 157.38 47.9982C157.721 49.6604 157.934 51.1309 158.02 52.4096H159.618C159.703 51.1309 159.895 49.6604 160.193 47.9982C160.534 46.2933 161.088 44.3966 161.856 42.3081L167.418 27.156H174.706L162.495 58.0996H155.143L142.931 27.156ZM174.38 42.8196C174.38 40.6459 174.721 38.5787 175.403 36.6181C176.128 34.6149 177.151 32.8674 178.472 31.3756C179.836 29.8412 181.498 28.6265 183.459 27.7314C185.42 26.8363 187.657 26.3888 190.172 26.3888C192.814 26.3888 195.095 26.8577 197.013 27.7953C198.973 28.733 200.55 30.033 201.744 31.6953C202.98 33.3149 203.832 35.2116 204.301 37.3853C204.77 39.5164 204.834 41.7967 204.493 44.2261H181.093C181.477 46.8261 182.564 48.9146 184.354 50.4916C186.187 52.0686 188.531 52.8571 191.387 52.8571C192.58 52.8571 193.688 52.7079 194.711 52.4096C195.777 52.1112 196.736 51.7489 197.588 51.3227C198.441 50.8965 199.186 50.4276 199.826 49.9162C200.465 49.3621 200.977 48.8719 201.36 48.4457L204.621 53.4964C204.195 53.88 203.598 54.3915 202.831 55.0308C202.106 55.6275 201.19 56.2242 200.082 56.8209C199.016 57.375 197.737 57.8439 196.246 58.2275C194.754 58.6537 193.006 58.8668 191.003 58.8668C188.403 58.8668 186.08 58.4832 184.034 57.716C181.988 56.9062 180.241 55.798 178.792 54.3915C177.385 52.985 176.298 51.3014 175.531 49.3408C174.764 47.3375 174.38 45.1638 174.38 42.8196ZM181.221 40.2623L182.116 40.6459C182.415 40.4328 183.267 40.177 184.674 39.8787C186.123 39.5377 187.849 39.3672 189.852 39.3672C191.088 39.3672 192.133 39.4098 192.985 39.4951C193.88 39.5803 194.605 39.6869 195.159 39.8148C195.713 39.9426 196.139 40.0705 196.437 40.1984C196.778 40.3262 197.013 40.4541 197.141 40.582L198.036 40.2623C198.036 38.8984 197.823 37.705 197.396 36.682C196.97 35.6165 196.395 34.7427 195.67 34.0608C194.946 33.3362 194.093 32.8034 193.113 32.4625C192.133 32.0789 191.088 31.8871 189.98 31.8871C189.085 31.8871 188.126 32.0575 187.103 32.3985C186.123 32.7395 185.206 33.251 184.354 33.9329C183.544 34.6149 182.841 35.4886 182.244 36.5542C181.69 37.5771 181.349 38.8131 181.221 40.2623ZM208.697 58.0996V12.7071H215.41V58.0996H208.697ZM219.526 42.8196C219.526 40.6459 219.867 38.5787 220.549 36.6181C221.273 34.6149 222.296 32.8674 223.617 31.3756C224.981 29.8412 226.644 28.6265 228.604 27.7314C230.565 26.8363 232.802 26.3888 235.317 26.3888C237.96 26.3888 240.24 26.8577 242.158 27.7953C244.119 28.733 245.696 30.033 246.889 31.6953C248.125 33.3149 248.978 35.2116 249.446 37.3853C249.915 39.5164 249.979 41.7967 249.638 44.2261H226.239C226.622 46.8261 227.709 48.9146 229.499 50.4916C231.332 52.0686 233.676 52.8571 236.532 52.8571C237.725 52.8571 238.833 52.7079 239.856 52.4096C240.922 52.1112 241.881 51.7489 242.733 51.3227C243.586 50.8965 244.332 50.4276 244.971 49.9162C245.61 49.3621 246.122 48.8719 246.505 48.4457L249.766 53.4964C249.34 53.88 248.743 54.3915 247.976 55.0308C247.251 55.6275 246.335 56.2242 245.227 56.8209C244.161 57.375 242.883 57.8439 241.391 58.2275C239.899 58.6537 238.152 58.8668 236.148 58.8668C233.548 58.8668 231.225 58.4832 229.18 57.716C227.134 56.9062 225.386 55.798 223.937 54.3915C222.531 52.985 221.444 51.3014 220.676 49.3408C219.909 47.3375 219.526 45.1638 219.526 42.8196ZM226.367 40.2623L227.262 40.6459C227.56 40.4328 228.412 40.177 229.819 39.8787C231.268 39.5377 232.994 39.3672 234.997 39.3672C236.234 39.3672 237.278 39.4098 238.13 39.4951C239.025 39.5803 239.75 39.6869 240.304 39.8148C240.858 39.9426 241.284 40.0705 241.583 40.1984C241.924 40.3262 242.158 40.4541 242.286 40.582L243.181 40.2623C243.181 38.8984 242.968 37.705 242.542 36.682C242.115 35.6165 241.54 34.7427 240.815 34.0608C240.091 33.3362 239.238 32.8034 238.258 32.4625C237.278 32.0789 236.234 31.8871 235.125 31.8871C234.23 31.8871 233.271 32.0575 232.248 32.3985C231.268 32.7395 230.352 33.251 229.499 33.9329C228.689 34.6149 227.986 35.4886 227.389 36.5542C226.835 37.5771 226.494 38.8131 226.367 40.2623ZM253.778 27.156H260.491V32.1428H262.026C262.537 30.5231 263.454 29.2445 264.775 28.3068C266.139 27.3265 267.673 26.8363 269.378 26.8363C270.827 26.8363 272.234 27.1773 273.598 27.8593L271.68 34.828C269.932 33.8903 268.291 33.4214 266.757 33.4214C265.776 33.4214 264.924 33.6132 264.199 33.9968C263.475 34.3804 262.857 34.8493 262.345 35.4034C261.834 35.9148 261.429 36.4902 261.131 37.1296C260.832 37.7689 260.619 38.3443 260.491 38.8558V58.0996H253.778V27.156Z" fill="white"/>
</svg>
