<svg width="16" height="22" viewBox="0 0 16 22" fill="none" xmlns="http://www.w3.org/2000/svg">
<path d="M15.8457 10.1622C15.8199 10.0529 15.7675 9.95172 15.6932 9.86757C15.6188 9.78342 15.5249 9.71893 15.4196 9.67983L10.5097 7.83806L11.7591 1.58835C11.7874 1.44314 11.7677 1.29267 11.703 1.15964C11.6382 1.02661 11.532 0.918246 11.4003 0.850895C11.2685 0.783544 11.1185 0.760862 10.9728 0.786272C10.827 0.811681 10.6935 0.883804 10.5923 0.991757L1.04688 11.219C0.969354 11.3007 0.91327 11.4003 0.88364 11.509C0.854009 11.6177 0.851755 11.732 0.87708 11.8417C0.902404 11.9514 0.954517 12.0532 1.02876 12.1379C1.10301 12.2226 1.19708 12.2875 1.30256 12.327L6.21421 14.1687L4.96819 20.4116C4.9399 20.5569 4.9596 20.7073 5.02433 20.8404C5.08906 20.9734 5.1953 21.0817 5.32702 21.1491C5.45874 21.2164 5.60879 21.2391 5.75453 21.2137C5.90027 21.1883 6.03379 21.1162 6.13495 21.0082L15.6804 10.781C15.7565 10.6993 15.8114 10.6001 15.8402 10.4922C15.8691 10.3843 15.871 10.271 15.8457 10.1622ZM6.77586 18.3295L7.66819 13.8653C7.70012 13.707 7.67482 13.5425 7.59678 13.4011C7.51874 13.2597 7.39303 13.1506 7.24205 13.0932L2.73864 11.4014L9.95057 3.67471L9.0591 8.13892C9.02716 8.29724 9.05247 8.46176 9.13051 8.60317C9.20855 8.74458 9.33425 8.8537 9.48523 8.91108L13.9852 10.5986L6.77586 18.3295Z" fill="white"/>
</svg>
