<svg width="419" height="1171" viewBox="0 0 419 1171" fill="none" xmlns="http://www.w3.org/2000/svg">
<path d="M42.3102 1.00118C44.6676 4.25231 48.8088 5.08243 53.3102 7.00118C72.2362 15.0686 92.138 22.2855 111.5 19.5C128.139 17.1063 144.248 5.57356 160.5 1.00127C176.5 -3.5 138.843 69.9054 147.31 82.0012C151.51 88.0012 173.769 81.6107 198.81 91.0012C206.81 94.0012 218.957 94.0047 231.31 98.0012C248.31 103.501 251.81 103.501 274.31 108.001C301.81 113.501 302.501 119.141 311.31 124.001C325.81 132.001 319.438 158.589 333.31 161.001C367.81 167.001 398.31 173.501 411.81 189.001C411.81 189.001 417.81 193.438 417.81 197.501C417.81 212.501 312.81 218.501 264.31 237.501C236.348 247.505 230.31 262.001 231.31 270.501C232.31 279.001 250.31 299.501 249.31 307.001C248.31 314.501 222.81 316.501 221.31 322.501C219.81 328.501 238.31 369.001 251.81 419.001C261.31 464.001 273.56 529.001 269.81 536.501C262.81 550.501 249.309 568.126 243.31 567.001C219.31 562.501 114.81 604.001 114.81 619.501C114.81 625.501 134.643 636.501 135.81 644.001C137.132 652.501 88.5549 648.161 74.3102 663.501C39.8596 700.603 -5.64079 813.501 1.81019 839.501C5.53568 852.501 46.1204 876.001 50.8102 888.501C55.5 901.001 84 923.501 80.4998 940.501C79.5924 944.909 72.1824 962.535 78 975.001C82.5464 984.744 121.074 1005.93 162.5 1031.5C184.857 1045.3 206.5 1066 227.5 1075.5C250.5 1085.91 286.824 1084.31 300 1098.5C319.5 1119.5 330 1169.5 330 1169.5" stroke="#fff35b" stroke-width="3" stroke-linecap="round" stroke-linejoin="round" stroke-dasharray="6 6"/>
</svg>
