<svg width="20" height="16" viewBox="0 0 20 16" fill="none" xmlns="http://www.w3.org/2000/svg">
<path d="M12.8127 5.25C13.2454 5.25 13.6683 5.12171 14.028 4.88134C14.3878 4.64098 14.6682 4.29933 14.8337 3.89962C14.9993 3.49991 15.0426 3.06007 14.9582 2.63574C14.8738 2.21141 14.6655 1.82163 14.3595 1.51571C14.0536 1.20978 13.6638 1.00144 13.2395 0.917033C12.8152 0.832628 12.3753 0.875948 11.9756 1.04151C11.5759 1.20708 11.2343 1.48746 10.9939 1.84719C10.7535 2.20692 10.6252 2.62985 10.6252 3.0625C10.6252 3.64266 10.8557 4.19906 11.2659 4.6093C11.6762 5.01953 12.2326 5.25 12.8127 5.25ZM12.8127 2.125C12.9982 2.125 13.1794 2.17998 13.3336 2.283C13.4878 2.38601 13.6079 2.53243 13.6789 2.70374C13.7498 2.87504 13.7684 3.06354 13.7322 3.2454C13.696 3.42726 13.6068 3.5943 13.4756 3.72541C13.3445 3.85653 13.1775 3.94581 12.9956 3.98199C12.8138 4.01816 12.6253 3.9996 12.454 3.92864C12.2827 3.85768 12.1362 3.73752 12.0332 3.58335C11.9302 3.42918 11.8752 3.24792 11.8752 3.0625C11.8752 2.81386 11.974 2.5754 12.1498 2.39959C12.3256 2.22377 12.5641 2.125 12.8127 2.125ZM19.9127 14.3063L15.6502 7.1125C15.5403 6.9251 15.3831 6.76988 15.1943 6.66238C15.0055 6.55488 14.7917 6.49889 14.5745 6.5C14.3573 6.49887 14.1437 6.55486 13.955 6.66237C13.7663 6.76987 13.6092 6.92511 13.4995 7.1125L11.4557 10.5625L7.95258 4.61719C7.84219 4.42958 7.68473 4.27405 7.49577 4.16599C7.30681 4.05793 7.09291 4.00109 6.87524 4.00109C6.65756 4.00109 6.44366 4.05793 6.2547 4.16599C6.06575 4.27405 5.90828 4.42958 5.79789 4.61719L0.086956 14.3078C0.0310552 14.4027 0.00123026 14.5107 0.000501947 14.6209C-0.000226364 14.731 0.0281679 14.8394 0.0828086 14.935C0.137449 15.0307 0.216396 15.1102 0.311651 15.1655C0.406907 15.2208 0.515088 15.25 0.625237 15.25H19.3752C19.4856 15.25 19.5939 15.2208 19.6893 15.1653C19.7846 15.1099 19.8636 15.0302 19.9182 14.9343C19.9728 14.8385 20.0011 14.7299 20.0001 14.6195C19.9991 14.5092 19.969 14.4011 19.9127 14.3063ZM6.87524 5.25L8.71664 8.375H5.03383L6.87524 5.25ZM1.71899 14L4.29711 9.625H9.45336L10.9174 12.1094L12.0315 14H1.71899ZM13.4823 14L12.1807 11.7906L14.5745 7.75L18.2815 14H13.4823Z" fill="white"/>
</svg>
