<svg width="16" height="16" viewBox="0 0 16 16" fill="none" xmlns="http://www.w3.org/2000/svg">
<path d="M15.4569 1.13047C15.448 0.977566 15.3832 0.833265 15.2749 0.724963C15.1666 0.616661 15.0223 0.551897 14.8694 0.542968C8.92173 0.193749 4.15767 1.98437 2.12642 5.34375C1.42233 6.4929 1.07537 7.82526 1.12955 9.17187C1.17408 10.4156 1.53658 11.6719 2.20689 12.9102L0.682672 14.4336C0.565396 14.5509 0.499512 14.7099 0.499512 14.8758C0.499512 15.0416 0.565396 15.2007 0.682672 15.318C0.799947 15.4352 0.959007 15.5011 1.12486 15.5011C1.29071 15.5011 1.44977 15.4352 1.56705 15.318L3.09048 13.7937C4.32798 14.4633 5.58502 14.8258 6.82798 14.8703C6.91496 14.8734 7.00168 14.875 7.08814 14.875C8.34731 14.8784 9.58263 14.5316 10.6561 13.8734C14.0155 11.8422 15.8069 7.07891 15.4569 1.13047ZM10.0116 12.8047C8.23423 13.8812 6.13033 13.8984 4.01861 12.8648L10.9428 5.94141C11.0009 5.88334 11.047 5.8144 11.0784 5.73853C11.1098 5.66266 11.126 5.58134 11.126 5.49922C11.126 5.4171 11.1098 5.33578 11.0784 5.25991C11.047 5.18404 11.0009 5.1151 10.9428 5.05703C10.8848 4.99896 10.8158 4.9529 10.7399 4.92147C10.6641 4.89005 10.5828 4.87387 10.5006 4.87387C10.4185 4.87387 10.3372 4.89005 10.2613 4.92147C10.1855 4.9529 10.1165 4.99896 10.0585 5.05703L3.13502 11.9844C2.10455 9.875 2.11939 7.76562 3.19517 5.99141C4.92095 3.14219 9.0233 1.58203 14.235 1.76797C14.4217 6.97578 12.8608 11.0789 10.0116 12.8047Z" fill="white"/>
</svg>
