<svg width="153" height="79" viewBox="0 0 153 79" fill="none" xmlns="http://www.w3.org/2000/svg">
<path d="M0.269972 25.0544C-0.107469 25.4576 -0.0866005 26.0904 0.316583 26.4678C0.719766 26.8453 1.35259 26.8244 1.73003 26.4212L0.269972 25.0544ZM151 47.0789L150.011 46.9291L151 47.0789ZM55.5718 55.5797C55.021 55.5401 54.5422 55.9545 54.5026 56.5053L53.8563 65.4821C53.8166 66.033 54.231 66.5117 54.7819 66.5513C55.3327 66.591 55.8114 66.1766 55.8511 65.6257L56.4256 57.6464L64.4049 58.2209C64.9558 58.2606 65.4345 57.8461 65.4742 57.2953C65.5138 56.7444 65.0994 56.2657 64.5486 56.2261L55.5718 55.5797ZM4.50744 23.6721C4.91409 23.2984 4.94081 22.6658 4.56711 22.2592C4.19341 21.8525 3.56081 21.8258 3.15415 22.1995L4.50744 23.6721ZM11.1622 15.9992C10.7004 16.3019 10.5714 16.9218 10.8742 17.3837C11.1769 17.8456 11.7968 17.9746 12.2587 17.6718L11.1622 15.9992ZM19.0841 13.7186C19.5758 13.4671 19.7705 12.8646 19.519 12.3729C19.2675 11.8812 18.665 11.6865 18.1733 11.938L19.0841 13.7186ZM27.3932 7.8722C26.8766 8.06748 26.6161 8.64457 26.8114 9.16118C27.0066 9.67779 27.5837 9.93828 28.1004 9.743L27.3932 7.8722ZM35.6101 7.23253C36.1401 7.07697 36.4435 6.52128 36.288 5.99135C36.1324 5.46143 35.5767 5.15795 35.0468 5.31351L35.6101 7.23253ZM44.8059 2.89157C44.265 3.00282 43.9166 3.53154 44.0279 4.07251C44.1391 4.61347 44.6679 4.96182 45.2088 4.85058L44.8059 2.89157ZM53.0196 3.4884C53.5662 3.40953 53.9454 2.90246 53.8665 2.35583C53.7876 1.80921 53.2806 1.43003 52.7339 1.50891L53.0196 3.4884ZM62.727 0.420967C62.1762 0.461989 61.763 0.941722 61.804 1.49248C61.845 2.04324 62.3248 2.45646 62.8755 2.41544L62.727 0.420967ZM70.8004 2.03571C71.3525 2.02376 71.7905 1.56646 71.7785 1.0143C71.7665 0.462146 71.3092 0.0242257 70.7571 0.0361789L70.8004 2.03571ZM80.7998 0.145162C80.248 0.121206 79.7813 0.54908 79.7573 1.10085C79.7334 1.65261 80.1613 2.11932 80.713 2.14328L80.7998 0.145162ZM88.6319 2.69696C89.1816 2.75019 89.6704 2.34771 89.7236 1.79799C89.7768 1.24828 89.3743 0.7595 88.8246 0.706274L88.6319 2.69696ZM98.7872 2.02067C98.2426 1.92898 97.7268 2.29615 97.6351 2.84076C97.5434 3.38538 97.9105 3.90122 98.4552 3.99292L98.7872 2.02067ZM106.224 5.54492C106.762 5.67009 107.299 5.3355 107.425 4.79759C107.55 4.25967 107.215 3.72214 106.677 3.59696L106.224 5.54492ZM116.38 6.30101C115.855 6.12853 115.29 6.41403 115.117 6.93869C114.945 7.46335 115.23 8.02849 115.755 8.20097L116.38 6.30101ZM123.152 10.9779C123.66 11.1947 124.248 10.9587 124.464 10.4507C124.681 9.94278 124.445 9.35525 123.937 9.13846L123.152 10.9779ZM132.952 13.6991C132.478 13.4151 131.864 13.569 131.58 14.0426C131.296 14.5163 131.45 15.1305 131.924 15.4145L132.952 13.6991ZM138.353 19.9077C138.78 20.2579 139.41 20.1957 139.761 19.7686C140.111 19.3416 140.049 18.7115 139.622 18.3613L138.353 19.9077ZM146.675 25.7253C146.351 25.2786 145.725 25.1799 145.279 25.5047C144.832 25.8295 144.733 26.455 145.058 26.9016L146.675 25.7253ZM148.729 33.6609C148.922 34.1784 149.498 34.4415 150.015 34.2486C150.532 34.0556 150.796 33.4797 150.603 32.9622L148.729 33.6609ZM152.337 43.1022C152.345 42.55 151.904 42.0954 151.352 42.0869C150.8 42.0783 150.345 42.5191 150.337 43.0713L152.337 43.1022ZM149.086 50.9329C148.921 51.4599 149.214 52.0211 149.741 52.1866C150.268 52.352 150.829 52.059 150.995 51.5321L149.086 50.9329ZM145.817 61.1862C146.161 60.7538 146.089 60.1248 145.656 59.7811C145.224 59.4375 144.595 59.5094 144.251 59.9418L145.817 61.1862ZM138.349 65.7168C137.912 66.0549 137.833 66.6831 138.171 67.1197C138.509 67.5563 139.137 67.6362 139.574 67.298L138.349 65.7168ZM130.238 72.8569C130.741 72.629 130.964 72.0364 130.736 71.5334C130.508 71.0303 129.916 70.8072 129.412 71.035L130.238 72.8569ZM121.552 73.8853C121.021 74.035 120.711 74.5873 120.861 75.1189C121.011 75.6505 121.563 75.9601 122.095 75.8104L121.552 73.8853ZM111.484 77.8618C112.033 77.8008 112.429 77.3064 112.368 76.7575C112.307 76.2086 111.813 75.8131 111.264 75.874L111.484 77.8618ZM102.879 76.2888C102.327 76.2827 101.874 76.7254 101.868 77.2776C101.862 77.8299 102.305 78.2825 102.857 78.2887L102.879 76.2888ZM92.1022 77.3607C92.6473 77.4494 93.1612 77.0795 93.25 76.5344C93.3387 75.9893 92.9688 75.4754 92.4237 75.3867L92.1022 77.3607ZM84.2392 73.5299C83.7093 73.3743 83.1536 73.6777 82.998 74.2076C82.8423 74.7375 83.1457 75.2932 83.6756 75.4489L84.2392 73.5299ZM73.5902 71.5686C74.0872 71.8093 74.6853 71.6015 74.9261 71.1045C75.1668 70.6074 74.959 70.0093 74.4619 69.7686L73.5902 71.5686ZM67.202 65.6C66.744 65.2914 66.1225 65.4125 65.8139 65.8705C65.5053 66.3286 65.6265 66.95 66.0845 67.2586L67.202 65.6ZM57.7068 60.4C58.0992 60.7886 58.7323 60.7856 59.121 60.3932C59.5096 60.0008 59.5066 59.3676 59.1142 58.979L57.7068 60.4ZM1.73003 26.4212C2.61428 25.4767 3.54086 24.5604 4.50744 23.6721L3.15415 22.1995C2.15189 23.1205 1.18958 24.0721 0.269972 25.0544L1.73003 26.4212ZM12.2587 17.6718C14.4188 16.2558 16.6993 14.9385 19.0841 13.7186L18.1733 11.938C15.7292 13.1882 13.3862 14.5413 11.1622 15.9992L12.2587 17.6718ZM28.1004 9.743C30.5356 8.8225 33.0433 7.98602 35.6101 7.23253L35.0468 5.31351C32.4341 6.08047 29.8782 6.93286 27.3932 7.8722L28.1004 9.743ZM45.2088 4.85058C47.7783 4.32217 50.3858 3.86845 53.0196 3.4884L52.7339 1.50891C50.0623 1.89443 47.4156 2.35491 44.8059 2.89157L45.2088 4.85058ZM62.8755 2.41544C65.5104 2.21919 68.1558 2.09296 70.8004 2.03571L70.7571 0.0361789C68.0778 0.0941803 65.3973 0.222075 62.727 0.420967L62.8755 2.41544ZM80.713 2.14328C83.3725 2.25875 86.0161 2.44369 88.6319 2.69696L88.8246 0.706274C86.1732 0.449548 83.4943 0.26215 80.7998 0.145162L80.713 2.14328ZM98.4552 3.99292C101.097 4.43767 103.691 4.95547 106.224 5.54492L106.677 3.59696C104.102 2.99783 101.468 2.47201 98.7872 2.02067L98.4552 3.99292ZM115.755 8.20097C118.321 9.04458 120.793 9.97091 123.152 10.9779L123.937 9.13846C121.521 8.10744 118.996 7.1612 116.38 6.30101L115.755 8.20097ZM131.924 15.4145C134.256 16.8124 136.407 18.3114 138.353 19.9077L139.622 18.3613C137.592 16.6964 135.359 15.1419 132.952 13.6991L131.924 15.4145ZM145.058 26.9016C146.609 29.0347 147.844 31.289 148.729 33.6609L150.603 32.9622C149.65 30.4064 148.325 27.9928 146.675 25.7253L145.058 26.9016ZM150.337 43.0713C150.317 44.3284 150.21 45.6144 150.011 46.9291L151.989 47.2287C152.201 45.8276 152.316 44.4519 152.337 43.1022L150.337 43.0713ZM150.011 46.9291C149.803 48.3064 149.492 49.6414 149.086 50.9329L150.995 51.5321C151.431 50.1429 151.765 48.7078 151.989 47.2287L150.011 46.9291ZM144.251 59.9418C142.576 62.0499 140.592 63.9798 138.349 65.7168L139.574 67.298C141.932 65.4718 144.033 63.4309 145.817 61.1862L144.251 59.9418ZM129.412 71.035C126.933 72.158 124.301 73.1114 121.552 73.8853L122.095 75.8104C124.934 75.0108 127.662 74.0236 130.238 72.8569L129.412 71.035ZM111.264 75.874C108.515 76.1794 105.71 76.3201 102.879 76.2888L102.857 78.2887C105.768 78.3209 108.655 78.1762 111.484 77.8618L111.264 75.874ZM92.4237 75.3867C89.673 74.9387 86.9354 74.3218 84.2392 73.5299L83.6756 75.4489C86.4535 76.2648 89.2719 76.8997 92.1022 77.3607L92.4237 75.3867ZM74.4619 69.7686C71.9596 68.5567 69.5309 67.1691 67.202 65.6L66.0845 67.2586C68.4946 68.8825 71.0057 70.317 73.5902 71.5686L74.4619 69.7686ZM59.1142 58.979C58.1301 58.0043 57.1764 56.9858 56.2561 55.9226L54.7439 57.2316C55.698 58.3338 56.6867 59.3897 57.7068 60.4L59.1142 58.979ZM0.269972 25.0544C-0.107469 25.4576 -0.0866005 26.0904 0.316583 26.4678C0.719766 26.8453 1.35259 26.8244 1.73003 26.4212L0.269972 25.0544ZM151 47.0789L150.011 46.9291L151 47.0789ZM55.5718 55.5797C55.021 55.5401 54.5422 55.9545 54.5026 56.5053L53.8563 65.4821C53.8166 66.033 54.231 66.5117 54.7819 66.5513C55.3327 66.591 55.8114 66.1766 55.8511 65.6257L56.4256 57.6464L64.4049 58.2209C64.9558 58.2606 65.4345 57.8461 65.4742 57.2953C65.5138 56.7444 65.0994 56.2657 64.5486 56.2261L55.5718 55.5797ZM4.50744 23.6721C4.91409 23.2984 4.94081 22.6658 4.56711 22.2592C4.19341 21.8525 3.56081 21.8258 3.15415 22.1995L4.50744 23.6721ZM11.1622 15.9992C10.7004 16.3019 10.5714 16.9218 10.8742 17.3837C11.1769 17.8456 11.7968 17.9746 12.2587 17.6718L11.1622 15.9992ZM19.0841 13.7186C19.5758 13.4671 19.7705 12.8646 19.519 12.3729C19.2675 11.8812 18.665 11.6865 18.1733 11.938L19.0841 13.7186ZM27.3932 7.8722C26.8766 8.06748 26.6161 8.64457 26.8114 9.16118C27.0066 9.67779 27.5837 9.93828 28.1004 9.743L27.3932 7.8722ZM35.6101 7.23253C36.1401 7.07697 36.4435 6.52128 36.288 5.99135C36.1324 5.46143 35.5767 5.15795 35.0468 5.31351L35.6101 7.23253ZM44.8059 2.89157C44.265 3.00282 43.9166 3.53154 44.0279 4.07251C44.1391 4.61347 44.6679 4.96182 45.2088 4.85058L44.8059 2.89157ZM53.0196 3.4884C53.5662 3.40953 53.9454 2.90246 53.8665 2.35583C53.7876 1.80921 53.2806 1.43003 52.7339 1.50891L53.0196 3.4884ZM62.727 0.420967C62.1762 0.461989 61.763 0.941722 61.804 1.49248C61.845 2.04324 62.3248 2.45646 62.8755 2.41544L62.727 0.420967ZM70.8004 2.03571C71.3525 2.02376 71.7905 1.56646 71.7785 1.0143C71.7665 0.462146 71.3092 0.0242257 70.7571 0.0361789L70.8004 2.03571ZM80.7998 0.145162C80.248 0.121206 79.7813 0.54908 79.7573 1.10085C79.7334 1.65261 80.1613 2.11932 80.713 2.14328L80.7998 0.145162ZM88.6319 2.69696C89.1816 2.75019 89.6704 2.34771 89.7236 1.79799C89.7768 1.24828 89.3743 0.7595 88.8246 0.706274L88.6319 2.69696ZM98.7872 2.02067C98.2426 1.92898 97.7268 2.29615 97.6351 2.84076C97.5434 3.38538 97.9105 3.90122 98.4552 3.99292L98.7872 2.02067ZM106.224 5.54492C106.762 5.67009 107.299 5.3355 107.425 4.79759C107.55 4.25967 107.215 3.72214 106.677 3.59696L106.224 5.54492ZM116.38 6.30101C115.855 6.12853 115.29 6.41403 115.117 6.93869C114.945 7.46335 115.23 8.02849 115.755 8.20097L116.38 6.30101ZM123.152 10.9779C123.66 11.1947 124.248 10.9587 124.464 10.4507C124.681 9.94278 124.445 9.35525 123.937 9.13846L123.152 10.9779ZM132.952 13.6991C132.478 13.4151 131.864 13.569 131.58 14.0426C131.296 14.5163 131.45 15.1305 131.924 15.4145L132.952 13.6991ZM138.353 19.9077C138.78 20.2579 139.41 20.1957 139.761 19.7686C140.111 19.3416 140.049 18.7115 139.622 18.3613L138.353 19.9077ZM146.675 25.7253C146.351 25.2786 145.725 25.1799 145.279 25.5047C144.832 25.8295 144.733 26.455 145.058 26.9016L146.675 25.7253ZM148.729 33.6609C148.922 34.1784 149.498 34.4415 150.015 34.2486C150.532 34.0556 150.796 33.4797 150.603 32.9622L148.729 33.6609ZM152.337 43.1022C152.345 42.55 151.904 42.0954 151.352 42.0869C150.8 42.0783 150.345 42.5191 150.337 43.0713L152.337 43.1022ZM149.086 50.9329C148.921 51.4599 149.214 52.0211 149.741 52.1866C150.268 52.352 150.829 52.059 150.995 51.5321L149.086 50.9329ZM145.817 61.1862C146.161 60.7538 146.089 60.1248 145.656 59.7811C145.224 59.4375 144.595 59.5094 144.251 59.9418L145.817 61.1862ZM138.349 65.7168C137.912 66.0549 137.833 66.6831 138.171 67.1197C138.509 67.5563 139.137 67.6362 139.574 67.298L138.349 65.7168ZM130.238 72.8569C130.741 72.629 130.964 72.0364 130.736 71.5334C130.508 71.0303 129.916 70.8072 129.412 71.035L130.238 72.8569ZM121.552 73.8853C121.021 74.035 120.711 74.5873 120.861 75.1189C121.011 75.6505 121.563 75.9601 122.095 75.8104L121.552 73.8853ZM111.484 77.8618C112.033 77.8008 112.429 77.3064 112.368 76.7575C112.307 76.2086 111.813 75.8131 111.264 75.874L111.484 77.8618ZM102.879 76.2888C102.327 76.2827 101.874 76.7254 101.868 77.2776C101.862 77.8299 102.305 78.2825 102.857 78.2887L102.879 76.2888ZM92.1022 77.3607C92.6473 77.4494 93.1612 77.0795 93.25 76.5344C93.3387 75.9893 92.9688 75.4754 92.4237 75.3867L92.1022 77.3607ZM84.2392 73.5299C83.7093 73.3743 83.1536 73.6777 82.998 74.2076C82.8423 74.7375 83.1457 75.2932 83.6756 75.4489L84.2392 73.5299ZM73.5902 71.5686C74.0872 71.8093 74.6853 71.6015 74.9261 71.1045C75.1668 70.6074 74.959 70.0093 74.4619 69.7686L73.5902 71.5686ZM67.202 65.6C66.744 65.2914 66.1225 65.4125 65.8139 65.8705C65.5053 66.3286 65.6265 66.95 66.0845 67.2586L67.202 65.6ZM57.7068 60.4C58.0992 60.7886 58.7323 60.7856 59.121 60.3932C59.5096 60.0008 59.5066 59.3676 59.1142 58.979L57.7068 60.4ZM1.73003 26.4212C2.61428 25.4767 3.54086 24.5604 4.50744 23.6721L3.15415 22.1995C2.15189 23.1205 1.18958 24.0721 0.269972 25.0544L1.73003 26.4212ZM12.2587 17.6718C14.4188 16.2558 16.6993 14.9385 19.0841 13.7186L18.1733 11.938C15.7292 13.1882 13.3862 14.5413 11.1622 15.9992L12.2587 17.6718ZM28.1004 9.743C30.5356 8.8225 33.0433 7.98602 35.6101 7.23253L35.0468 5.31351C32.4341 6.08047 29.8782 6.93286 27.3932 7.8722L28.1004 9.743ZM45.2088 4.85058C47.7783 4.32217 50.3858 3.86845 53.0196 3.4884L52.7339 1.50891C50.0623 1.89443 47.4156 2.35491 44.8059 2.89157L45.2088 4.85058ZM62.8755 2.41544C65.5104 2.21919 68.1558 2.09296 70.8004 2.03571L70.7571 0.0361789C68.0778 0.0941803 65.3973 0.222075 62.727 0.420967L62.8755 2.41544ZM80.713 2.14328C83.3725 2.25875 86.0161 2.44369 88.6319 2.69696L88.8246 0.706274C86.1732 0.449548 83.4943 0.26215 80.7998 0.145162L80.713 2.14328ZM98.4552 3.99292C101.097 4.43767 103.691 4.95547 106.224 5.54492L106.677 3.59696C104.102 2.99783 101.468 2.47201 98.7872 2.02067L98.4552 3.99292ZM115.755 8.20097C118.321 9.04458 120.793 9.97091 123.152 10.9779L123.937 9.13846C121.521 8.10744 118.996 7.1612 116.38 6.30101L115.755 8.20097ZM131.924 15.4145C134.256 16.8124 136.407 18.3114 138.353 19.9077L139.622 18.3613C137.592 16.6964 135.359 15.1419 132.952 13.6991L131.924 15.4145ZM145.058 26.9016C146.609 29.0347 147.844 31.289 148.729 33.6609L150.603 32.9622C149.65 30.4064 148.325 27.9928 146.675 25.7253L145.058 26.9016ZM150.337 43.0713C150.317 44.3284 150.21 45.6144 150.011 46.9291L151.989 47.2287C152.201 45.8276 152.316 44.4519 152.337 43.1022L150.337 43.0713ZM150.011 46.9291C149.803 48.3064 149.492 49.6414 149.086 50.9329L150.995 51.5321C151.431 50.1429 151.765 48.7078 151.989 47.2287L150.011 46.9291ZM144.251 59.9418C142.576 62.0499 140.592 63.9798 138.349 65.7168L139.574 67.298C141.932 65.4718 144.033 63.4309 145.817 61.1862L144.251 59.9418ZM129.412 71.035C126.933 72.158 124.301 73.1114 121.552 73.8853L122.095 75.8104C124.934 75.0108 127.662 74.0236 130.238 72.8569L129.412 71.035ZM111.264 75.874C108.515 76.1794 105.71 76.3201 102.879 76.2888L102.857 78.2887C105.768 78.3209 108.655 78.1762 111.484 77.8618L111.264 75.874ZM92.4237 75.3867C89.673 74.9387 86.9354 74.3218 84.2392 73.5299L83.6756 75.4489C86.4535 76.2648 89.2719 76.8997 92.1022 77.3607L92.4237 75.3867ZM74.4619 69.7686C71.9596 68.5567 69.5309 67.1691 67.202 65.6L66.0845 67.2586C68.4946 68.8825 71.0057 70.317 73.5902 71.5686L74.4619 69.7686ZM59.1142 58.979C58.1301 58.0043 57.1764 56.9858 56.2561 55.9226L54.7439 57.2316C55.698 58.3338 56.6867 59.3897 57.7068 60.4L59.1142 58.979Z" fill="#E4BA00"/>
</svg>
